<?xml version="1.0" encoding="UTF-8" standalone="no"?>
<!DOCTYPE svg PUBLIC "-//W3C//DTD SVG 1.1//EN" "http://www.w3.org/Graphics/SVG/1.1/DTD/svg11.dtd">
<svg xmlns="http://www.w3.org/2000/svg" version="1.1" viewBox="0.00 0.00 200.00 200.00">
<g stroke-width="2.00" fill="none" stroke-linecap="butt">
<path stroke="#d3d3d3" vector-effect="non-scaling-stroke" d="
  M 174.99 166.33
  Q 172.77 142.73 155.26 130.04
  Q 141.73 120.23 125.55 117.10
  Q 124.62 116.92 123.95 117.58
  Q 106.05 134.95 83.77 123.81
  Q 81.73 122.78 75.70 117.26
  Q 75.33 116.92 74.84 117.02
  Q 59.14 120.10 46.81 128.57
  Q 27.41 141.89 25.03 166.30"
/>
<path stroke="#d3d3d3" vector-effect="non-scaling-stroke" d="
  M 98.38 33.09
  C 84.06 33.27 71.64 39.68 67.82 54.53
  C 62.66 74.62 64.85 96.51 81.18 110.65
  C 90.92 119.08 102.45 121.03 113.75 114.42
  C 126.99 106.67 134.11 91.15 134.62 76.25
  Q 135.09 62.63 131.93 52.98
  C 126.81 37.36 113.28 32.90 98.38 33.09"
/>
</g>
<path fill="#b3b3b3" d="
  M 94.42 0.00
  L 105.70 0.00
  Q 127.94 1.59 145.38 10.87
  Q 194.69 37.12 200.00 94.37
  L 200.00 105.72
  Q 197.50 139.99 174.99 166.33
  Q 172.77 142.73 155.26 130.04
  Q 141.73 120.23 125.55 117.10
  Q 124.62 116.92 123.95 117.58
  Q 106.05 134.95 83.77 123.81
  Q 81.73 122.78 75.70 117.26
  Q 75.33 116.92 74.84 117.02
  Q 59.14 120.10 46.81 128.57
  Q 27.41 141.89 25.03 166.30
  Q 2.10 139.53 0.00 104.62
  L 0.00 94.30
  C 3.98 42.79 42.89 3.87 94.42 0.00
  Z
  M 98.38 33.09
  C 84.06 33.27 71.64 39.68 67.82 54.53
  C 62.66 74.62 64.85 96.51 81.18 110.65
  C 90.92 119.08 102.45 121.03 113.75 114.42
  C 126.99 106.67 134.11 91.15 134.62 76.25
  Q 135.09 62.63 131.93 52.98
  C 126.81 37.36 113.28 32.90 98.38 33.09
  Z"
/>
<path fill="#f2f2f2" d="
  M 67.82 54.53
  C 71.64 39.68 84.06 33.27 98.38 33.09
  C 113.28 32.90 126.81 37.36 131.93 52.98
  Q 135.09 62.63 134.62 76.25
  C 134.11 91.15 126.99 106.67 113.75 114.42
  C 102.45 121.03 90.92 119.08 81.18 110.65
  C 64.85 96.51 62.66 74.62 67.82 54.53
  Z"
/>
<path fill="#f2f2f2" d="
  M 174.99 166.33
  Q 148.92 195.50 108.80 200.00
  L 91.01 200.00
  C 87.69 199.23 83.85 199.02 81.02 198.44
  Q 47.44 191.54 25.03 166.30
  Q 27.41 141.89 46.81 128.57
  Q 59.14 120.10 74.84 117.02
  Q 75.33 116.92 75.70 117.26
  Q 81.73 122.78 83.77 123.81
  Q 106.05 134.95 123.95 117.58
  Q 124.62 116.92 125.55 117.10
  Q 141.73 120.23 155.26 130.04
  Q 172.77 142.73 174.99 166.33
  Z"
/>
</svg>
