<?xml version="1.0" encoding="UTF-8" standalone="no"?>
<!DOCTYPE svg PUBLIC "-//W3C//DTD SVG 1.1//EN" "http://www.w3.org/Graphics/SVG/1.1/DTD/svg11.dtd">
<svg xmlns="http://www.w3.org/2000/svg" version="1.1" viewBox="0.00 0.00 213.00 372.00">
<g stroke-width="2.00" fill="none" stroke-linecap="butt">
<path stroke="#314444" vector-effect="non-scaling-stroke" d="
  M 150.25 100.98
  Q 149.38 101.11 149.25 100.81"
/>
<path stroke="#81918d" vector-effect="non-scaling-stroke" d="
  M 149.25 100.81
  Q 149.92 100.78 149.92 100.77
  A 0.66 0.65 -87.0 0 0 149.25 100.02
  L 140.95 100.33
  A 0.20 0.19 -1.6 0 0 140.76 100.52
  Q 140.75 100.66 140.80 100.79"
/>
<path stroke="#314444" vector-effect="non-scaling-stroke" d="
  M 140.80 100.79
  Q 140.67 101.19 140.01 100.76"
/>
<path stroke="#314444" vector-effect="non-scaling-stroke" d="
  M 169.50 56.26
  L 169.19 52.55"
/>
<path stroke="#314444" vector-effect="non-scaling-stroke" d="
  M 169.01 52.47
  Q 168.44 54.37 169.02 56.23"
/>
<path stroke="#81918d" vector-effect="non-scaling-stroke" d="
  M 167.80 94.83
  L 136.68 94.52
  Q 136.54 94.52 136.52 94.66
  L 136.49 94.92"
/>
<path stroke="#81918d" vector-effect="non-scaling-stroke" d="
  M 137.31 95.51
  C 139.29 95.51 141.34 96.06 143.24 96.03
  Q 154.24 95.82 165.25 95.72
  Q 165.94 95.71 167.80 94.83"
/>
<path stroke="#81918d" vector-effect="non-scaling-stroke" d="
  M 174.64 95.53
  L 187.34 95.47
  Q 188.00 95.47 188.00 94.81
  L 188.00 48.27
  Q 188.00 48.07 187.88 47.91
  Q 187.77 47.78 187.72 47.71
  A 0.41 0.41 0.0 0 0 187.00 47.97
  L 187.00 94.04
  Q 187.00 94.72 186.33 94.72
  L 173.95 94.81"
/>
<path stroke="#81918d" vector-effect="non-scaling-stroke" d="
  M 110.77 65.98
  Q 111.49 64.48 110.68 63.13
  A 0.36 0.36 0.0 0 0 110.01 63.31
  L 109.99 67.51
  A 0.39 0.38 51.7 0 0 110.75 67.60
  Q 110.87 67.12 110.71 66.54
  A 0.84 0.83 -39.1 0 1 110.77 65.98"
/>
<path stroke="#81918d" vector-effect="non-scaling-stroke" d="
  M 124.0701 95.1200
  A 0.50 0.50 0.0 0 0 123.5719 94.6183
  L 113.0920 94.5817
  A 0.50 0.50 0.0 0 0 112.5902 95.0800
  L 112.5899 95.1800
  A 0.50 0.50 0.0 0 0 113.0881 95.6817
  L 123.5680 95.7183
  A 0.50 0.50 0.0 0 0 124.0698 95.2200
  L 124.0701 95.1200"
/>
<path stroke="#7a6f63" vector-effect="non-scaling-stroke" d="
  M 34.01 131.23
  Q 34.35 131.40 34.22 132.25
  Q 32.70 141.85 30.63 151.42"
/>
<path stroke="#6f5d57" vector-effect="non-scaling-stroke" d="
  M 30.63 151.42
  L 25.90 149.33"
/>
<path stroke="#6f5d57" vector-effect="non-scaling-stroke" d="
  M 85.15 113.97
  Q 78.97 110.67 75.19 104.49
  A 0.56 0.56 0.0 0 0 74.16 104.66
  C 72.79 110.59 69.04 111.97 63.74 113.74
  A 0.74 0.74 0.0 0 0 63.24 114.47
  L 64.22 137.90"
/>
<path stroke="#314444" vector-effect="non-scaling-stroke" d="
  M 64.22 137.90
  Q 50.38 135.23 36.75 131.73
  Q 35.76 131.48 34.79 130.63"
/>
<path stroke="#767f82" vector-effect="non-scaling-stroke" d="
  M 149.25 100.81
  L 140.80 100.79"
/>
<path stroke="#6f5d57" vector-effect="non-scaling-stroke" d="
  M 150.26 161.48
  L 145.53 165.51
  A 0.44 0.44 0.0 0 1 144.90 164.91
  L 148.77 159.87
  Q 148.99 159.59 149.05 159.24
  Q 149.09 159.04 149.11 158.96
  A 0.62 0.62 0.0 0 0 148.11 158.33
  L 140.03 165.12"
/>
<path stroke="#6f5d57" vector-effect="non-scaling-stroke" d="
  M 85.44 126.61
  Q 82.76 130.98 79.25 132.03"
/>
<path stroke="#ad7967" vector-effect="non-scaling-stroke" d="
  M 79.25 132.03
  L 72.32 129.89
  Q 71.69 129.69 72.07 130.23
  Q 74.57 133.68 79.18 133.58"
/>
<path stroke="#6f5d57" vector-effect="non-scaling-stroke" d="
  M 79.18 133.58
  L 79.42 140.81"
/>
<path stroke="#7a6f63" vector-effect="non-scaling-stroke" d="
  M 79.42 140.81
  L 64.22 137.90"
/>
<path stroke="#6f5d57" vector-effect="non-scaling-stroke" d="
  M 73.71 114.90
  L 74.21 115.92
  Q 74.44 116.39 74.82 116.04
  Q 75.24 115.64 75.12 115.18
  Q 75.03 114.84 74.65 114.62
  Q 73.94 114.22 73.20 114.42
  A 0.12 0.12 0.0 0 0 73.20 114.65
  Q 73.38 114.71 73.56 114.77
  Q 73.66 114.80 73.71 114.90"
/>
<path stroke="#6f5d57" vector-effect="non-scaling-stroke" d="
  M 83.55 114.92
  Q 83.38 114.76 83.14 114.74
  Q 82.22 114.66 82.48 115.47
  C 82.58 115.76 82.88 116.04 83.12 116.10
  A 0.63 0.55 -11.5 0 0 83.81 115.19
  L 83.55 114.92"
/>
<path stroke="#ad7967" vector-effect="non-scaling-stroke" d="
  M 80.06 121.11
  L 79.82 121.62
  A 0.22 0.22 0.0 0 0 80.08 121.93
  Q 80.65 121.77 80.64 121.18
  C 80.61 120.10 79.84 116.67 79.07 115.62
  Q 78.54 114.89 78.81 115.76
  L 80.14 119.93
  A 1.64 1.61 49.4 0 1 80.06 121.11"
/>
<path stroke="#beaaa1" vector-effect="non-scaling-stroke" d="
  M 78.29 123.45
  L 76.59 122.72
  A 0.48 0.47 -1.1 0 0 75.97 123.36
  Q 76.79 125.04 78.79 124.75
  Q 79.44 124.66 79.48 124.02
  Q 79.52 123.50 79.00 123.50
  L 78.52 123.50
  A 0.56 0.55 56.8 0 1 78.29 123.45"
/>
<path stroke="#314444" vector-effect="non-scaling-stroke" d="
  M 85.80 142.00
  L 74.48 165.27"
/>
<path stroke="#767f82" vector-effect="non-scaling-stroke" d="
  M 74.48 165.27
  L 71.19 172.02"
/>
<path stroke="#314444" vector-effect="non-scaling-stroke" d="
  M 71.19 172.02
  L 61.31 192.46"
/>
<path stroke="#36464e" vector-effect="non-scaling-stroke" d="
  M 61.31 192.46
  Q 56.63 202.31 51.53 212.74
  Q 51.31 213.20 50.59 213.92
  Q 49.70 214.83 50.55 215.66"
/>
<path stroke="#314444" vector-effect="non-scaling-stroke" d="
  M 54.85 193.03
  Q 55.47 193.48 55.71 192.99
  Q 60.82 182.38 65.38 172.47"
/>
<path stroke="#767f82" vector-effect="non-scaling-stroke" d="
  M 65.38 172.47
  L 69.11 165.09"
/>
<path stroke="#314444" vector-effect="non-scaling-stroke" d="
  M 69.11 165.09
  L 80.44 141.59
  A 0.59 0.59 0.0 0 0 80.16 140.80
  Q 79.86 140.66 79.42 140.81"
/>
<path stroke="#654e48" vector-effect="non-scaling-stroke" d="
  M 79.18 133.58
  L 79.25 132.03"
/>
<path stroke="#314444" vector-effect="non-scaling-stroke" d="
  M 44.93 226.22
  Q 46.82 224.28 47.92 220.97
  A 0.17 0.17 0.0 0 0 47.76 220.75
  Q 47.63 220.75 47.50 220.75
  Q 47.33 220.75 47.26 220.91
  L 44.93 226.22"
/>
<path stroke="#314444" vector-effect="non-scaling-stroke" d="
  M 44.93 226.22
  Q 42.49 226.85 41.43 226.28
  Q 40.34 225.69 41.07 223.67
  Q 41.96 221.20 43.73 218.46
  Q 43.92 218.16 43.75 217.83
  Q 43.55 217.43 43.35 217.83
  C 42.39 219.67 40.15 223.09 40.11 225.09
  Q 40.06 227.05 42.31 227.14
  Q 43.01 227.17 44.93 226.22"
/>
<path stroke="#767f82" vector-effect="non-scaling-stroke" d="
  M 32.77 241.49
  L 28.16 237.80
  A 0.20 0.20 0.0 0 0 27.84 238.02
  Q 27.88 238.15 27.99 238.27
  Q 30.16 240.56 32.94 242.15
  Q 33.40 242.41 33.93 242.33
  C 37.37 241.76 37.14 238.99 35.94 236.28
  C 33.17 230.01 36.93 227.92 38.07 222.23
  Q 38.10 222.11 37.99 222.08
  Q 37.87 222.04 37.74 222.00
  Q 37.57 221.94 37.53 222.12
  C 36.83 225.65 34.55 228.20 34.25 231.79
  C 34.00 234.76 38.81 240.40 33.88 241.72
  Q 33.26 241.88 32.77 241.49"
/>
<path stroke="#314444" vector-effect="non-scaling-stroke" d="
  M 40.01 233.51
  Q 39.48 234.59 39.27 235.82
  A 0.23 0.23 0.0 0 0 39.71 235.93
  L 40.76 232.75
  Q 41.06 231.85 40.32 232.52
  Q 40.22 232.62 40.19 232.88
  Q 40.16 233.21 40.01 233.51"
/>
<path stroke="#767f82" vector-effect="non-scaling-stroke" d="
  M 40.73 243.17
  A 2.39 2.39 0.0 0 1 41.28 239.78
  C 43.11 238.50 47.56 237.01 48.66 235.69
  Q 48.88 235.43 48.55 235.54
  C 44.93 236.75 37.32 239.57 40.06 243.70
  Q 42.09 246.75 46.43 245.65
  Q 46.53 245.62 46.49 245.38
  Q 46.46 245.14 46.21 245.18
  Q 42.71 245.84 40.73 243.17"
/>
<path stroke="#767f82" vector-effect="non-scaling-stroke" d="
  M 33.27 255.53
  C 36.24 250.56 39.53 250.76 44.44 252.19
  A 0.28 0.28 0.0 0 0 44.66 251.68
  C 41.12 249.50 33.56 250.11 32.98 255.44
  A 0.16 0.15 -27.3 0 0 33.27 255.53"
/>
<path stroke="#81918d" vector-effect="non-scaling-stroke" d="
  M 69.11 165.09
  L 65.45 164.76
  Q 65.03 164.72 64.97 165.14
  Q 64.41 169.00 65.38 172.47"
/>
<path stroke="#314444" vector-effect="non-scaling-stroke" d="
  M 51.26 167.65
  L 50.37 163.48
  Q 50.26 162.94 49.71 162.82
  L 30.30 158.68
  A 0.87 0.86 10.5 0 1 29.62 157.70
  L 30.63 151.42"
/>
<path stroke="#7a6f63" vector-effect="non-scaling-stroke" d="
  M 102.90 174.22
  L 93.20 180.95
  A 1.35 1.33 -11.8 0 0 92.67 181.75
  L 90.36 192.95"
/>
<path stroke="#41585a" vector-effect="non-scaling-stroke" d="
  M 88.98 198.81
  Q 88.89 197.57 87.44 197.36
  Q 80.81 196.40 61.31 192.46"
/>
<path stroke="#81918d" vector-effect="non-scaling-stroke" d="
  M 71.19 172.02
  L 87.79 172.91
  Q 88.25 172.94 88.25 172.48
  L 88.25 166.76
  Q 88.25 166.26 87.74 166.22
  L 74.48 165.27"
/>
<path stroke="#314444" vector-effect="non-scaling-stroke" d="
  M 94.52 175.20
  Q 94.37 175.50 94.48 175.73
  A 0.27 0.27 0.0 0 0 95.00 175.66
  C 95.89 169.56 93.22 165.66 90.85 160.48
  Q 90.33 159.32 90.49 160.58
  Q 90.55 160.98 90.58 161.35
  Q 90.64 161.90 91.05 162.51
  Q 94.69 167.93 94.69 174.44
  Q 94.69 174.84 94.52 175.20"
/>
<path stroke="#6f5d57" vector-effect="non-scaling-stroke" d="
  M 150.23 164.75
  Q 148.90 165.64 148.20 166.71
  Q 147.47 167.81 148.51 167.00
  L 150.58 165.38"
/>
<path stroke="#6f5d57" vector-effect="non-scaling-stroke" d="
  M 150.24 171.48
  Q 143.88 175.23 139.96 180.75"
/>
<path stroke="#7e716d" vector-effect="non-scaling-stroke" d="
  M 102.04 240.74
  L 71.94 254.23"
/>
<path stroke="#74625e" vector-effect="non-scaling-stroke" d="
  M 71.94 254.23
  L 68.82 255.59
  Q 68.27 255.83 68.01 255.28
  Q 67.16 253.49 65.82 253.18"
/>
<path stroke="#36464e" vector-effect="non-scaling-stroke" d="
  M 65.82 253.18
  Q 66.44 252.85 66.25 252.50
  Q 62.14 244.90 55.03 233.32"
/>
<path stroke="#36464e" vector-effect="non-scaling-stroke" d="
  M 81.69 202.44
  Q 81.04 203.60 80.23 204.66
  Q 79.86 205.15 80.36 204.91
  Q 80.50 204.84 80.65 204.66
  Q 81.64 203.43 82.25 201.99
  A 0.20 0.20 0.0 0 0 81.95 201.75
  Q 81.65 201.98 81.69 202.44"
/>
<path stroke="#36464e" vector-effect="non-scaling-stroke" d="
  M 77.02 207.17
  Q 78.51 206.78 79.16 205.91
  Q 79.59 205.33 78.97 205.70
  L 76.91 206.93
  Q 76.12 207.41 77.02 207.17"
/>
<path stroke="#36464e" vector-effect="non-scaling-stroke" d="
  M 102.9570 230.8071
  A 0.27 0.27 0.0 0 0 102.5943 230.6879
  L 65.6591 249.3452
  A 0.27 0.27 0.0 0 0 65.5398 249.7079
  L 65.6030 249.8329
  A 0.27 0.27 0.0 0 0 65.9657 249.9521
  L 102.9009 231.2948
  A 0.27 0.27 0.0 0 0 103.0202 230.9321
  L 102.9570 230.8071"
/>
<path stroke="#654e48" vector-effect="non-scaling-stroke" d="
  M 65.82 253.18
  L 61.64 253.35"
/>
<path stroke="#7a6f63" vector-effect="non-scaling-stroke" d="
  M 122.10 363.28
  L 105.25 366.99"
/>
<path stroke="#ad7967" vector-effect="non-scaling-stroke" d="
  M 87.51 280.13
  L 71.94 254.23"
/>
<path stroke="#705f53" vector-effect="non-scaling-stroke" d="
  M 26.57 340.82
  L 15.98 329.62
  Q 15.65 329.27 15.17 329.25
  L 14.27 329.23"
/>
<path stroke="#81918d" vector-effect="non-scaling-stroke" d="
  M 27.94 349.20
  L 24.71 349.95"
/>
<path stroke="#81918d" vector-effect="non-scaling-stroke" d="
  M 13.75 337.85
  Q 16.18 334.35 13.54 329.97"
/>
</g>
<path fill="#3c554f" d="
  M 150.25 100.98
  Q 149.38 101.11 149.25 100.81
  Q 149.92 100.78 149.92 100.77
  A 0.66 0.65 -87.0 0 0 149.25 100.02
  L 140.95 100.33
  A 0.20 0.19 -1.6 0 0 140.76 100.52
  Q 140.75 100.66 140.80 100.79
  Q 140.67 101.19 140.01 100.76
  L 104.27 100.52
  Q 103.75 100.52 103.75 100.00
  L 103.75 25.00
  Q 103.75 24.50 104.25 24.50
  L 192.48 24.50
  A 0.74 0.73 -0.0 0 1 193.22 25.23
  L 193.17 99.33
  Q 193.17 100.70 191.80 100.71
  Q 171.91 100.77 152.93 100.75
  Q 152.69 100.75 151.61 100.55
  Q 150.75 100.39 150.25 100.98
  Z
  M 187.10 45.98
  Q 186.98 46.61 187.39 47.19
  A 0.34 0.33 27.6 0 0 188.00 47.00
  L 188.00 29.50
  A 0.75 0.75 0.0 0 0 187.25 28.75
  L 111.00 28.75
  A 1.23 1.22 -89.8 0 0 109.78 29.97
  Q 109.70 44.94 109.73 60.56
  Q 109.73 61.68 110.48 62.19
  Q 111.00 62.55 111.00 61.92
  L 111.00 31.00
  A 1.00 0.99 -89.7 0 1 112.00 30.00
  L 185.51 30.01
  Q 187.15 30.01 187.07 31.65
  C 186.88 35.72 187.82 41.96 187.10 45.98
  Z
  M 169.50 56.26
  L 169.19 52.55
  C 169.91 47.30 167.59 45.75 162.65 45.73
  Q 135.47 45.67 125.56 46.09
  C 123.70 46.16 122.14 48.26 122.04 50.19
  Q 121.46 61.65 121.84 73.12
  Q 121.86 73.75 122.49 73.75
  L 126.00 73.75
  A 0.50 0.50 0.0 0 0 126.50 73.22
  C 126.10 66.49 136.17 65.32 137.00 73.16
  Q 137.06 73.77 137.67 73.77
  L 163.79 73.74
  Q 164.35 73.74 164.45 73.20
  L 164.72 71.82
  A 1.71 1.64 -20.9 0 1 165.07 71.08
  C 168.27 67.30 174.04 68.08 175.04 73.44
  A 0.55 0.54 -7.2 0 0 175.61 73.88
  L 178.37 73.69
  A 0.59 0.59 0.0 0 0 178.93 73.12
  Q 179.15 65.70 178.64 63.81
  C 177.17 58.36 171.30 62.06 169.50 56.26
  Z
  M 173.95 94.81
  L 167.80 94.83
  L 136.68 94.52
  Q 136.54 94.52 136.52 94.66
  L 136.49 94.92
  Q 131.30 94.56 126.06 94.78
  Q 125.31 94.81 124.83 95.30
  Q 124.42 95.73 125.01 95.72
  L 137.31 95.51
  C 139.29 95.51 141.34 96.06 143.24 96.03
  Q 154.24 95.82 165.25 95.72
  Q 165.94 95.71 167.80 94.83
  L 167.54 95.20
  Q 167.28 95.60 167.76 95.60
  L 174.64 95.53
  L 187.34 95.47
  Q 188.00 95.47 188.00 94.81
  L 188.00 48.27
  Q 188.00 48.07 187.88 47.91
  Q 187.77 47.78 187.72 47.71
  A 0.41 0.41 0.0 0 0 187.00 47.97
  L 187.00 94.04
  Q 187.00 94.72 186.33 94.72
  L 173.95 94.81
  Z
  M 110.77 65.98
  Q 111.49 64.48 110.68 63.13
  A 0.36 0.36 0.0 0 0 110.01 63.31
  L 109.99 67.51
  A 0.39 0.38 51.7 0 0 110.75 67.60
  Q 110.87 67.12 110.71 66.54
  A 0.84 0.83 -39.1 0 1 110.77 65.98
  Z
  M 109.91 95.64
  L 111.01 95.64
  A 0.25 0.25 0.0 0 0 111.26 95.39
  L 111.26 95.19
  A 26.67 0.77 89.8 0 0 110.39 68.52
  L 110.33 68.52
  A 26.67 0.77 89.8 0 0 109.66 95.19
  L 109.66 95.39
  A 0.25 0.25 0.0 0 0 109.91 95.64
  Z
  M 135.37 72.96
  A 3.81 3.81 0.0 0 0 131.56 69.15
  A 3.81 3.81 0.0 0 0 127.75 72.96
  A 3.81 3.81 0.0 0 0 131.56 76.77
  A 3.81 3.81 0.0 0 0 135.37 72.96
  Z
  M 173.45 73.88
  A 3.80 3.80 0.0 0 0 169.65 70.08
  A 3.80 3.80 0.0 0 0 165.85 73.88
  A 3.80 3.80 0.0 0 0 169.65 77.68
  A 3.80 3.80 0.0 0 0 173.45 73.88
  Z
  M 124.0701 95.1200
  A 0.50 0.50 0.0 0 0 123.5719 94.6183
  L 113.0920 94.5817
  A 0.50 0.50 0.0 0 0 112.5902 95.0800
  L 112.5899 95.1800
  A 0.50 0.50 0.0 0 0 113.0881 95.6817
  L 123.5680 95.7183
  A 0.50 0.50 0.0 0 0 124.0698 95.2200
  L 124.0701 95.1200
  Z"
/>
<path fill="#c5cccb" d="
  M 174.64 95.53
  Q 174.30 95.17 173.95 94.81
  L 186.33 94.72
  Q 187.00 94.72 187.00 94.04
  L 187.00 47.97
  A 0.41 0.41 0.0 0 1 187.72 47.71
  Q 187.77 47.78 187.88 47.91
  Q 188.00 48.07 188.00 48.27
  L 188.00 94.81
  Q 188.00 95.47 187.34 95.47
  L 174.64 95.53
  Z"
/>
<rect fill="#3c554f" x="-2.62" y="-3.93" transform="translate(126.87,56.07) rotate(-0.1)" width="5.24" height="7.86" rx="0.36"/>
<rect fill="#3c554f" x="-2.62" y="-3.93" transform="translate(134.62,56.08) rotate(-0.2)" width="5.24" height="7.86" rx="0.70"/>
<rect fill="#3c554f" x="-2.62" y="-3.91" transform="translate(150.37,56.10) rotate(-0.5)" width="5.24" height="7.82" rx="0.68"/>
<rect fill="#3c554f" x="-2.73" y="-3.94" transform="translate(157.98,56.06) rotate(0.6)" width="5.46" height="7.88" rx="0.66"/>
<path fill="#3c554f" d="
  M 169.01 52.47
  Q 168.44 54.37 169.02 56.23
  L 168.73 59.53
  A 0.52 0.51 2.4 0 1 168.21 60.00
  L 164.00 60.00
  Q 163.50 60.00 163.50 59.50
  L 163.50 52.74
  Q 163.50 52.26 163.98 52.28
  L 169.01 52.47
  Z"
/>
<rect fill="#3c554f" x="-2.64" y="-3.87" transform="translate(142.15,56.12) rotate(-0.7)" width="5.28" height="7.74" rx="0.53"/>
<path fill="#263238" d="
  M 169.01 52.47
  Q 169.10 52.51 169.19 52.55
  L 169.50 56.26
  L 169.02 56.23
  Q 168.44 54.37 169.01 52.47
  Z"
/>
<path fill="#c5cccb" d="
  M 110.71 66.54
  Q 110.87 67.12 110.75 67.60
  A 0.39 0.38 51.7 0 1 109.99 67.51
  L 110.01 63.31
  A 0.36 0.36 0.0 0 1 110.68 63.13
  Q 111.49 64.48 110.77 65.98
  A 0.84 0.83 -39.1 0 0 110.71 66.54
  Z"
/>
<path fill="#b78876" d="
  M 34.01 131.23
  Q 34.35 131.40 34.22 132.25
  Q 32.70 141.85 30.63 151.42
  L 25.90 149.33
  Q 12.41 144.19 8.72 141.80
  C -6.68 131.81 2.77 101.45 7.25 87.99
  C 9.21 82.11 10.41 75.75 12.41 69.69
  Q 12.55 69.25 13.02 69.25
  L 13.51 69.25
  A 0.45 0.45 0.0 0 1 13.95 69.81
  L 12.27 76.51
  Q 12.15 77.00 12.56 76.70
  C 14.81 75.02 15.83 70.35 17.06 67.75
  A 0.51 0.51 0.0 0 1 17.96 67.71
  L 18.30 68.28
  A 0.19 0.18 32.8 0 1 18.33 68.41
  Q 17.69 72.96 15.28 76.87
  A 0.80 0.77 50.3 0 0 15.23 77.57
  Q 15.61 78.42 16.24 77.90
  C 17.15 77.14 19.98 70.20 21.28 68.39
  Q 21.55 68.02 21.99 68.16
  Q 23.34 68.60 22.68 69.68
  Q 19.86 74.28 18.78 79.26
  A 0.53 0.53 0.0 0 0 19.76 79.63
  L 23.98 72.05
  A 0.66 0.66 0.0 0 1 24.91 71.81
  Q 25.82 72.40 25.35 73.65
  Q 23.52 78.49 21.62 83.30
  Q 21.16 84.45 21.25 84.95
  Q 21.49 86.33 22.71 85.64
  Q 25.71 83.94 29.33 84.37
  A 0.98 0.98 0.0 0 1 29.33 86.31
  C 25.52 86.79 21.74 88.59 20.50 92.59
  Q 15.81 107.75 17.06 122.90
  A 2.59 2.58 -79.1 0 0 18.48 125.00
  Q 25.98 128.78 34.01 131.23
  Z"
/>
<path fill="#263238" d="
  M 85.15 113.97
  Q 78.97 110.67 75.19 104.49
  A 0.56 0.56 0.0 0 0 74.16 104.66
  C 72.79 110.59 69.04 111.97 63.74 113.74
  A 0.74 0.74 0.0 0 0 63.24 114.47
  L 64.22 137.90
  Q 50.38 135.23 36.75 131.73
  Q 35.76 131.48 34.79 130.63
  C 35.85 128.53 40.38 128.09 43.75 127.52
  C 50.04 126.45 53.21 120.53 53.97 114.34
  C 54.56 109.46 55.63 105.96 58.66 102.36
  A 0.32 0.32 0.0 0 0 58.36 101.84
  Q 53.77 102.66 50.68 99.53
  C 44.68 93.45 62.40 87.30 61.33 99.48
  Q 61.28 100.03 61.70 99.68
  C 66.74 95.54 74.42 94.14 79.75 98.31
  C 84.97 102.39 87.45 107.09 85.15 113.97
  Z"
/>
<rect fill="#c5cccb" x="-5.74" y="-0.55" transform="translate(118.33,95.15) rotate(0.2)" width="11.48" height="1.10" rx="0.50"/>
<path fill="#c5cccb" d="
  M 167.80 94.83
  Q 165.94 95.71 165.25 95.72
  Q 154.24 95.82 143.24 96.03
  C 141.34 96.06 139.29 95.51 137.31 95.51
  L 136.49 94.92
  L 136.52 94.66
  Q 136.54 94.52 136.68 94.52
  L 167.80 94.83
  Z"
/>
<path fill="#c5cccb" d="
  M 149.25 100.81
  L 140.80 100.79
  Q 140.75 100.66 140.76 100.52
  A 0.20 0.19 -1.6 0 1 140.95 100.33
  L 149.25 100.02
  A 0.66 0.65 -87.0 0 1 149.92 100.77
  Q 149.92 100.78 149.25 100.81
  Z"
/>
<path fill="#263238" d="
  M 140.01 100.76
  Q 140.67 101.19 140.80 100.79
  L 149.25 100.81
  Q 149.38 101.11 150.25 100.98
  L 150.26 161.48
  L 145.53 165.51
  A 0.44 0.44 0.0 0 1 144.90 164.91
  L 148.77 159.87
  Q 148.99 159.59 149.05 159.24
  Q 149.09 159.04 149.11 158.96
  A 0.62 0.62 0.0 0 0 148.11 158.33
  L 140.03 165.12
  L 140.01 100.76
  Z"
/>
<path fill="#b78876" d="
  M 85.15 113.97
  L 85.44 126.61
  Q 82.76 130.98 79.25 132.03
  L 72.32 129.89
  Q 71.69 129.69 72.07 130.23
  Q 74.57 133.68 79.18 133.58
  L 79.42 140.81
  L 64.22 137.90
  L 63.24 114.47
  A 0.74 0.74 0.0 0 1 63.74 113.74
  C 69.04 111.97 72.79 110.59 74.16 104.66
  A 0.56 0.56 0.0 0 1 75.19 104.49
  Q 78.97 110.67 85.15 113.97
  Z
  M 73.71 114.90
  L 74.21 115.92
  Q 74.44 116.39 74.82 116.04
  Q 75.24 115.64 75.12 115.18
  Q 75.03 114.84 74.65 114.62
  Q 73.94 114.22 73.20 114.42
  A 0.12 0.12 0.0 0 0 73.20 114.65
  Q 73.38 114.71 73.56 114.77
  Q 73.66 114.80 73.71 114.90
  Z
  M 83.55 114.92
  Q 83.38 114.76 83.14 114.74
  Q 82.22 114.66 82.48 115.47
  C 82.58 115.76 82.88 116.04 83.12 116.10
  A 0.63 0.55 -11.5 0 0 83.81 115.19
  L 83.55 114.92
  Z
  M 80.06 121.11
  L 79.82 121.62
  A 0.22 0.22 0.0 0 0 80.08 121.93
  Q 80.65 121.77 80.64 121.18
  C 80.61 120.10 79.84 116.67 79.07 115.62
  Q 78.54 114.89 78.81 115.76
  L 80.14 119.93
  A 1.64 1.61 49.4 0 1 80.06 121.11
  Z
  M 78.29 123.45
  L 76.59 122.72
  A 0.48 0.47 -1.1 0 0 75.97 123.36
  Q 76.79 125.04 78.79 124.75
  Q 79.44 124.66 79.48 124.02
  Q 79.52 123.50 79.00 123.50
  L 78.52 123.50
  A 0.56 0.55 56.8 0 1 78.29 123.45
  Z"
/>
<path fill="#263238" d="
  M 73.56 114.77
  Q 73.38 114.71 73.20 114.65
  A 0.12 0.12 0.0 0 1 73.20 114.42
  Q 73.94 114.22 74.65 114.62
  Q 75.03 114.84 75.12 115.18
  Q 75.24 115.64 74.82 116.04
  Q 74.44 116.39 74.21 115.92
  L 73.71 114.90
  Q 73.66 114.80 73.56 114.77
  Z"
/>
<path fill="#263238" d="
  M 83.55 114.92
  L 83.81 115.19
  A 0.63 0.55 -11.5 0 1 83.12 116.10
  C 82.88 116.04 82.58 115.76 82.48 115.47
  Q 82.22 114.66 83.14 114.74
  Q 83.38 114.76 83.55 114.92
  Z"
/>
<path fill="#a36957" d="
  M 80.06 121.11
  A 1.64 1.61 49.4 0 0 80.14 119.93
  L 78.81 115.76
  Q 78.54 114.89 79.07 115.62
  C 79.84 116.67 80.61 120.10 80.64 121.18
  Q 80.65 121.77 80.08 121.93
  A 0.22 0.22 0.0 0 1 79.82 121.62
  L 80.06 121.11
  Z"
/>
<path fill="#c5cccb" d="
  M 78.52 123.50
  L 79.00 123.50
  Q 79.52 123.50 79.48 124.02
  Q 79.44 124.66 78.79 124.75
  Q 76.79 125.04 75.97 123.36
  A 0.48 0.47 -1.1 0 1 76.59 122.72
  L 78.29 123.45
  A 0.56 0.55 56.8 0 0 78.52 123.50
  Z"
/>
<path fill="#263238" d="
  M 85.44 126.61
  Q 85.50 133.91 83.59 140.17
  Q 83.44 140.66 83.85 140.98
  Q 84.96 141.85 85.80 142.00
  L 74.48 165.27
  L 71.19 172.02
  L 61.31 192.46
  Q 56.63 202.31 51.53 212.74
  Q 51.31 213.20 50.59 213.92
  Q 49.70 214.83 50.55 215.66
  L 49.13 217.75
  A 0.89 0.88 49.4 0 0 49.07 218.61
  C 53.43 227.63 48.96 242.55 45.86 251.58
  C 43.23 259.21 36.36 258.64 29.80 255.66
  C 22.70 252.43 23.42 247.11 25.69 240.49
  Q 29.34 229.82 34.24 221.51
  Q 37.36 216.22 43.92 215.47
  Q 44.40 215.42 44.64 214.99
  Q 50.66 204.36 54.85 193.03
  Q 55.47 193.48 55.71 192.99
  Q 60.82 182.38 65.38 172.47
  L 69.11 165.09
  L 80.44 141.59
  A 0.59 0.59 0.0 0 0 80.16 140.80
  Q 79.86 140.66 79.42 140.81
  L 79.18 133.58
  L 79.25 132.03
  Q 82.76 130.98 85.44 126.61
  Z
  M 44.93 226.22
  Q 46.82 224.28 47.92 220.97
  A 0.17 0.17 0.0 0 0 47.76 220.75
  Q 47.63 220.75 47.50 220.75
  Q 47.33 220.75 47.26 220.91
  L 44.93 226.22
  Q 42.49 226.85 41.43 226.28
  Q 40.34 225.69 41.07 223.67
  Q 41.96 221.20 43.73 218.46
  Q 43.92 218.16 43.75 217.83
  Q 43.55 217.43 43.35 217.83
  C 42.39 219.67 40.15 223.09 40.11 225.09
  Q 40.06 227.05 42.31 227.14
  Q 43.01 227.17 44.93 226.22
  Z
  M 32.77 241.49
  L 28.16 237.80
  A 0.20 0.20 0.0 0 0 27.84 238.02
  Q 27.88 238.15 27.99 238.27
  Q 30.16 240.56 32.94 242.15
  Q 33.40 242.41 33.93 242.33
  C 37.37 241.76 37.14 238.99 35.94 236.28
  C 33.17 230.01 36.93 227.92 38.07 222.23
  Q 38.10 222.11 37.99 222.08
  Q 37.87 222.04 37.74 222.00
  Q 37.57 221.94 37.53 222.12
  C 36.83 225.65 34.55 228.20 34.25 231.79
  C 34.00 234.76 38.81 240.40 33.88 241.72
  Q 33.26 241.88 32.77 241.49
  Z
  M 40.01 233.51
  Q 39.48 234.59 39.27 235.82
  A 0.23 0.23 0.0 0 0 39.71 235.93
  L 40.76 232.75
  Q 41.06 231.85 40.32 232.52
  Q 40.22 232.62 40.19 232.88
  Q 40.16 233.21 40.01 233.51
  Z
  M 40.73 243.17
  A 2.39 2.39 0.0 0 1 41.28 239.78
  C 43.11 238.50 47.56 237.01 48.66 235.69
  Q 48.88 235.43 48.55 235.54
  C 44.93 236.75 37.32 239.57 40.06 243.70
  Q 42.09 246.75 46.43 245.65
  Q 46.53 245.62 46.49 245.38
  Q 46.46 245.14 46.21 245.18
  Q 42.71 245.84 40.73 243.17
  Z
  M 33.27 255.53
  C 36.24 250.56 39.53 250.76 44.44 252.19
  A 0.28 0.28 0.0 0 0 44.66 251.68
  C 41.12 249.50 33.56 250.11 32.98 255.44
  A 0.16 0.15 -27.3 0 0 33.27 255.53
  Z"
/>
<path fill="#a36957" d="
  M 79.25 132.03
  L 79.18 133.58
  Q 74.57 133.68 72.07 130.23
  Q 71.69 129.69 72.32 129.89
  L 79.25 132.03
  Z"
/>
<path fill="#3c554f" d="
  M 34.79 130.63
  Q 35.76 131.48 36.75 131.73
  Q 50.38 135.23 64.22 137.90
  L 79.42 140.81
  Q 79.86 140.66 80.16 140.80
  A 0.59 0.59 0.0 0 1 80.44 141.59
  L 69.11 165.09
  L 65.45 164.76
  Q 65.03 164.72 64.97 165.14
  Q 64.41 169.00 65.38 172.47
  Q 60.82 182.38 55.71 192.99
  Q 55.47 193.48 54.85 193.03
  Q 54.70 192.48 55.02 191.94
  A 1.49 1.44 56.1 0 0 55.19 190.99
  L 51.26 167.65
  L 50.37 163.48
  Q 50.26 162.94 49.71 162.82
  L 30.30 158.68
  A 0.87 0.86 10.5 0 1 29.62 157.70
  L 30.63 151.42
  Q 32.70 141.85 34.22 132.25
  Q 34.35 131.40 34.01 131.23
  L 34.79 130.63
  Z"
/>
<path fill="#3c554f" d="
  M 85.80 142.00
  C 96.59 144.96 102.42 163.20 104.76 172.49
  A 0.76 0.76 0.0 0 1 104.41 173.33
  L 102.90 174.22
  L 93.20 180.95
  A 1.35 1.33 -11.8 0 0 92.67 181.75
  L 90.36 192.95
  L 88.98 198.81
  Q 88.89 197.57 87.44 197.36
  Q 80.81 196.40 61.31 192.46
  L 71.19 172.02
  L 87.79 172.91
  Q 88.25 172.94 88.25 172.48
  L 88.25 166.76
  Q 88.25 166.26 87.74 166.22
  L 74.48 165.27
  L 85.80 142.00
  Z
  M 94.52 175.20
  Q 94.37 175.50 94.48 175.73
  A 0.27 0.27 0.0 0 0 95.00 175.66
  C 95.89 169.56 93.22 165.66 90.85 160.48
  Q 90.33 159.32 90.49 160.58
  Q 90.55 160.98 90.58 161.35
  Q 90.64 161.90 91.05 162.51
  Q 94.69 167.93 94.69 174.44
  Q 94.69 174.84 94.52 175.20
  Z"
/>
<path fill="#263238" d="
  M 25.90 149.33
  L 30.63 151.42
  L 29.62 157.70
  A 0.87 0.86 10.5 0 0 30.30 158.68
  L 49.71 162.82
  Q 50.26 162.94 50.37 163.48
  L 51.26 167.65
  Q 41.91 169.75 33.54 167.69
  C 25.42 165.69 19.20 156.89 25.90 149.33
  Z"
/>
<path fill="#b78876" d="
  M 150.26 161.48
  L 152.76 159.12
  A 0.55 0.54 51.6 0 1 153.59 159.22
  Q 154.08 159.97 153.43 160.69
  Q 151.67 162.63 150.23 164.75
  Q 148.90 165.64 148.20 166.71
  Q 147.47 167.81 148.51 167.00
  L 150.58 165.38
  L 155.38 161.96
  A 0.48 0.47 -83.9 0 1 155.97 162.70
  L 150.53 167.78
  A 0.56 0.56 0.0 0 0 151.23 168.66
  L 155.81 165.59
  A 0.55 0.54 -81.2 0 1 156.45 166.47
  L 150.24 171.48
  Q 143.88 175.23 139.96 180.75
  C 128.53 192.78 105.24 217.47 90.36 192.95
  L 92.67 181.75
  A 1.35 1.33 -11.8 0 1 93.20 180.95
  L 102.90 174.22
  L 106.79 183.66
  Q 107.74 185.96 109.83 184.60
  Q 123.21 175.90 135.24 165.35
  Q 135.71 164.94 135.57 164.34
  L 134.76 160.88
  A 0.71 0.70 -25.4 0 1 135.02 160.15
  Q 135.85 159.54 136.46 160.31
  Q 137.63 161.80 138.34 165.43
  A 0.62 0.62 0.0 0 0 139.14 165.90
  Q 139.65 165.73 140.03 165.12
  L 148.11 158.33
  A 0.62 0.62 0.0 0 1 149.11 158.96
  Q 149.09 159.04 149.05 159.24
  Q 148.99 159.59 148.77 159.87
  L 144.90 164.91
  A 0.44 0.44 0.0 0 0 145.53 165.51
  L 150.26 161.48
  Z"
/>
<path fill="#263238" d="
  M 94.69 174.44
  Q 94.69 167.93 91.05 162.51
  Q 90.64 161.90 90.58 161.35
  Q 90.55 160.98 90.49 160.58
  Q 90.33 159.32 90.85 160.48
  C 93.22 165.66 95.89 169.56 95.00 175.66
  A 0.27 0.27 0.0 0 1 94.48 175.73
  Q 94.37 175.50 94.52 175.20
  Q 94.69 174.84 94.69 174.44
  Z"
/>
<path fill="#c5cccb" d="
  M 69.11 165.09
  L 65.38 172.47
  Q 64.41 169.00 64.97 165.14
  Q 65.03 164.72 65.45 164.76
  L 69.11 165.09
  Z"
/>
<path fill="#263238" d="
  M 150.23 164.75
  Q 150.14 165.10 150.58 165.38
  L 148.51 167.00
  Q 147.47 167.81 148.20 166.71
  Q 148.90 165.64 150.23 164.75
  Z"
/>
<path fill="#c5cccb" d="
  M 74.48 165.27
  L 87.74 166.22
  Q 88.25 166.26 88.25 166.76
  L 88.25 172.48
  Q 88.25 172.94 87.79 172.91
  L 71.19 172.02
  L 74.48 165.27
  Z"
/>
<path fill="#263238" d="
  M 150.24 171.48
  L 150.20 372.00
  L 139.99 372.00
  L 139.96 180.75
  Q 143.88 175.23 150.24 171.48
  Z"
/>
<path fill="#455a64" d="
  M 61.31 192.46
  Q 80.81 196.40 87.44 197.36
  Q 88.89 197.57 88.98 198.81
  L 88.99 203.82
  Q 88.99 204.36 89.25 204.83
  L 103.02 229.41
  Q 103.27 229.85 103.71 230.11
  Q 104.29 230.46 104.27 231.06
  Q 104.26 231.56 104.50 232.00
  L 107.43 237.26
  Q 107.83 237.98 107.09 238.33
  L 102.04 240.74
  L 71.94 254.23
  L 68.82 255.59
  Q 68.27 255.83 68.01 255.28
  Q 67.16 253.49 65.82 253.18
  Q 66.44 252.85 66.25 252.50
  Q 62.14 244.90 55.03 233.32
  C 53.10 227.18 50.52 223.10 50.55 215.66
  Q 49.70 214.83 50.59 213.92
  Q 51.31 213.20 51.53 212.74
  Q 56.63 202.31 61.31 192.46
  Z
  M 81.69 202.44
  Q 81.04 203.60 80.23 204.66
  Q 79.86 205.15 80.36 204.91
  Q 80.50 204.84 80.65 204.66
  Q 81.64 203.43 82.25 201.99
  A 0.20 0.20 0.0 0 0 81.95 201.75
  Q 81.65 201.98 81.69 202.44
  Z
  M 77.02 207.17
  Q 78.51 206.78 79.16 205.91
  Q 79.59 205.33 78.97 205.70
  L 76.91 206.93
  Q 76.12 207.41 77.02 207.17
  Z
  M 102.9570 230.8071
  A 0.27 0.27 0.0 0 0 102.5943 230.6879
  L 65.6591 249.3452
  A 0.27 0.27 0.0 0 0 65.5398 249.7079
  L 65.6030 249.8329
  A 0.27 0.27 0.0 0 0 65.9657 249.9521
  L 102.9009 231.2948
  A 0.27 0.27 0.0 0 0 103.0202 230.9321
  L 102.9570 230.8071
  Z"
/>
<path fill="#263238" d="
  M 81.69 202.44
  Q 81.65 201.98 81.95 201.75
  A 0.20 0.20 0.0 0 1 82.25 201.99
  Q 81.64 203.43 80.65 204.66
  Q 80.50 204.84 80.36 204.91
  Q 79.86 205.15 80.23 204.66
  Q 81.04 203.60 81.69 202.44
  Z"
/>
<path fill="#263238" d="
  M 77.02 207.17
  Q 76.12 207.41 76.91 206.93
  L 78.97 205.70
  Q 79.59 205.33 79.16 205.91
  Q 78.51 206.78 77.02 207.17
  Z"
/>
<path fill="#3c554f" d="
  M 44.93 226.22
  Q 43.01 227.17 42.31 227.14
  Q 40.06 227.05 40.11 225.09
  C 40.15 223.09 42.39 219.67 43.35 217.83
  Q 43.55 217.43 43.75 217.83
  Q 43.92 218.16 43.73 218.46
  Q 41.96 221.20 41.07 223.67
  Q 40.34 225.69 41.43 226.28
  Q 42.49 226.85 44.93 226.22
  Z"
/>
<path fill="#3c554f" d="
  M 44.93 226.22
  L 47.26 220.91
  Q 47.33 220.75 47.50 220.75
  Q 47.63 220.75 47.76 220.75
  A 0.17 0.17 0.0 0 1 47.92 220.97
  Q 46.82 224.28 44.93 226.22
  Z"
/>
<path fill="#c5cccb" d="
  M 33.88 241.72
  C 38.81 240.40 34.00 234.76 34.25 231.79
  C 34.55 228.20 36.83 225.65 37.53 222.12
  Q 37.57 221.94 37.74 222.00
  Q 37.87 222.04 37.99 222.08
  Q 38.10 222.11 38.07 222.23
  C 36.93 227.92 33.17 230.01 35.94 236.28
  C 37.14 238.99 37.37 241.76 33.93 242.33
  Q 33.40 242.41 32.94 242.15
  Q 30.16 240.56 27.99 238.27
  Q 27.88 238.15 27.84 238.02
  A 0.20 0.20 0.0 0 1 28.16 237.80
  L 32.77 241.49
  Q 33.26 241.88 33.88 241.72
  Z"
/>
<rect fill="#263238" x="-20.96" y="-0.34" transform="translate(84.28,240.32) rotate(-26.8)" width="41.92" height="0.68" rx="0.27"/>
<path fill="#3c554f" d="
  M 40.19 232.88
  Q 40.22 232.62 40.32 232.52
  Q 41.06 231.85 40.76 232.75
  L 39.71 235.93
  A 0.23 0.23 0.0 0 1 39.27 235.82
  Q 39.48 234.59 40.01 233.51
  Q 40.16 233.21 40.19 232.88
  Z"
/>
<path fill="#263238" d="
  M 55.03 233.32
  Q 62.14 244.90 66.25 252.50
  Q 66.44 252.85 65.82 253.18
  L 61.64 253.35
  L 58.28 253.21
  Q 57.78 253.19 57.71 252.69
  L 55.03 233.32
  Z"
/>
<path fill="#c5cccb" d="
  M 40.73 243.17
  Q 42.71 245.84 46.21 245.18
  Q 46.46 245.14 46.49 245.38
  Q 46.53 245.62 46.43 245.65
  Q 42.09 246.75 40.06 243.70
  C 37.32 239.57 44.93 236.75 48.55 235.54
  Q 48.88 235.43 48.66 235.69
  C 47.56 237.01 43.11 238.50 41.28 239.78
  A 2.39 2.39 0.0 0 0 40.73 243.17
  Z"
/>
<path fill="#b78876" d="
  M 102.04 240.74
  C 106.03 252.74 110.11 264.29 113.40 275.93
  Q 114.03 278.14 114.27 280.63
  Q 119.36 334.61 121.00 354.00
  Q 121.53 360.26 122.10 363.28
  L 105.25 366.99
  Q 94.37 306.87 89.81 284.44
  Q 89.54 283.07 87.51 280.13
  L 71.94 254.23
  L 102.04 240.74
  Z"
/>
<path fill="#c5cccb" d="
  M 44.44 252.19
  C 39.53 250.76 36.24 250.56 33.27 255.53
  A 0.16 0.15 -27.3 0 1 32.98 255.44
  C 33.56 250.11 41.12 249.50 44.66 251.68
  A 0.28 0.28 0.0 0 1 44.44 252.19
  Z"
/>
<path fill="#a36957" d="
  M 65.82 253.18
  Q 67.16 253.49 68.01 255.28
  Q 68.27 255.83 68.82 255.59
  L 71.94 254.23
  L 87.51 280.13
  C 86.77 282.81 87.59 285.62 85.60 287.84
  Q 82.17 291.66 78.42 295.16
  Q 53.15 318.80 26.57 340.82
  L 15.98 329.62
  Q 15.65 329.27 15.17 329.25
  L 14.27 329.23
  L 64.91 279.91
  Q 65.29 279.54 65.21 279.02
  L 61.64 253.35
  L 65.82 253.18
  Z"
/>
<path fill="#3c554f" d="
  M 14.27 329.23
  L 15.17 329.25
  Q 15.65 329.27 15.98 329.62
  L 26.57 340.82
  Q 26.32 341.96 25.49 342.58
  Q 25.12 342.86 25.31 343.28
  L 27.94 349.20
  L 24.71 349.95
  L 13.75 337.85
  Q 16.18 334.35 13.54 329.97
  Q 13.73 329.46 14.27 329.23
  Z"
/>
<path fill="#c5cccb" d="
  M 13.54 329.97
  Q 16.18 334.35 13.75 337.85
  Q 11.43 335.97 10.34 333.66
  Q 10.09 333.13 10.52 332.73
  L 13.54 329.97
  Z"
/>
<path fill="#c5cccb" d="
  M 27.94 349.20
  L 29.58 352.92
  A 0.72 0.72 0.0 0 1 28.52 353.81
  Q 26.24 352.27 24.71 349.95
  L 27.94 349.20
  Z"
/>
<path fill="#3c554f" d="
  M 122.10 363.28
  L 122.85 365.18
  Q 123.05 365.69 123.60 365.76
  L 130.88 366.68
  Q 131.08 366.71 131.19 366.88
  L 131.35 367.12
  Q 131.70 367.66 132.30 367.42
  Q 133.46 366.98 134.58 367.50
  A 0.70 0.70 0.0 0 1 134.47 368.80
  Q 126.78 370.95 119.25 371.03
  Q 117.72 371.04 114.66 372.00
  L 112.21 372.00
  Q 110.37 371.05 108.19 371.81
  A 1.75 1.75 0.0 0 1 106.06 370.95
  Q 105.14 369.14 105.25 366.99
  L 122.10 363.28
  Z
  M 107.20 370.75
  L 108.23 370.75
  A 0.36 0.36 0.0 0 0 108.59 370.33
  Q 108.39 369.03 106.97 369.71
  A 0.55 0.54 -57.6 0 0 107.20 370.75
  Z"
/>
</svg>
